<?xml version="1.0" standalone="no"?><!DOCTYPE svg PUBLIC "-//W3C//DTD SVG 1.1//EN" "http://www.w3.org/Graphics/SVG/1.1/DTD/svg11.dtd"><svg t="1704849901450" class="icon" viewBox="0 0 1024 1024" version="1.1" xmlns="http://www.w3.org/2000/svg" p-id="1770" id="mx_n_1704849901451" xmlns:xlink="http://www.w3.org/1999/xlink" width="200" height="200"><path d="M512 554.688h106.688q8.448 0 16.32-3.264 7.808-3.2 13.824-9.28l320-320q2.944-2.944 5.312-6.4 2.304-3.52 3.968-7.424 1.6-3.84 2.432-8 0.768-4.096 0.768-8.32t-0.768-8.32q-0.832-4.096-2.432-8-1.664-3.84-3.968-7.36-2.368-3.52-5.312-6.464L862.144 55.168q-2.944-3.008-6.4-5.312-3.52-2.304-7.424-3.968-3.84-1.6-8-2.432-4.096-0.768-8.32-0.768t-8.32 0.768q-4.096 0.832-8 2.432-3.84 1.664-7.36 3.968-3.52 2.304-6.464 5.312l-320 320q-6.016 6.016-9.28 13.824-3.2 7.872-3.2 16.32V512q0 4.224 0.768 8.32 0.832 4.096 2.432 8 1.6 3.84 3.968 7.36 2.304 3.52 5.312 6.464 2.944 3.008 6.4 5.312 3.52 2.368 7.424 3.968 3.84 1.6 8 2.432 4.096 0.832 8.32 0.832z m88.96-85.376h-46.272V423.04L832 145.664l46.336 46.336L600.96 469.312z" p-id="1771"></path><path d="M832 896H384q-4.224 0-8.32 0.832t-8 2.432q-3.84 1.6-7.36 3.904-3.52 2.368-6.464 5.312-3.008 3.008-5.312 6.464-2.368 3.52-3.968 7.424-1.6 3.84-2.432 8-0.832 4.096-0.832 8.32 0 4.16 0.832 8.32 0.832 4.096 2.432 8 1.6 3.84 3.968 7.36 2.304 3.52 5.312 6.464 2.944 2.944 6.4 5.312 3.52 2.304 7.424 3.968 3.84 1.6 8 2.432 4.096 0.768 8.32 0.768h448q61.888 0 105.6-43.712 43.712-43.776 43.712-105.6 0-61.824-43.712-105.6-43.712-43.712-105.6-43.712H192q-26.496 0-45.248-18.752T128 618.688q0-26.56 18.752-45.248 18.752-18.752 45.248-18.752h149.312q4.224 0 8.32-0.832 4.16-0.832 8-2.432 3.904-1.6 7.424-3.968 3.456-2.304 6.4-5.312 3.008-2.944 5.376-6.4 2.304-3.52 3.904-7.424 1.6-3.84 2.432-8Q384 516.224 384 512t-0.832-8.32q-0.832-4.096-2.432-8-1.6-3.84-3.904-7.36-2.368-3.52-5.312-6.464-3.008-3.008-6.464-5.312-3.52-2.368-7.424-3.968-3.84-1.6-8-2.432-4.096-0.832-8.32-0.832H192q-61.824 0-105.6 43.776-43.712 43.712-43.712 105.6 0 61.824 43.712 105.6Q130.176 768 192 768h640q26.496 0 45.248 18.752T896 832q0 26.496-18.752 45.248T832 896z" p-id="1772"></path></svg>