<?xml version="1.0" encoding="UTF-8"?>
<svg width="20px" height="20px" viewBox="0 0 20 20" version="1.1" xmlns="http://www.w3.org/2000/svg" xmlns:xlink="http://www.w3.org/1999/xlink">
    <title>700pa气温</title>
    <g id="规范" stroke="none" stroke-width="1" fill="none" fill-rule="evenodd">
        <g id="icon" transform="translate(-241, -870)">
            <g id="编组备份-2" transform="translate(151, 782)">
                <g id="700pa气温" transform="translate(95, 88)">
                    <circle id="椭圆形" fill="" opacity="0" cx="7.5" cy="7.5" r="7.5"></circle>
                    <g id="温度" transform="translate(0, 1.25)" fill="" fill-rule="nonzero">
                        <path d="M8.40964016,1.67629129 C9.39411771,2.24467967 10.0005809,3.29510472 10.0005809,4.43188148 L10.0005809,8.61207821 C11.9971797,10.0023312 12.8600231,12.5278729 12.131463,14.849168 C11.4029029,17.170463 9.25164218,18.75 6.81869943,18.75 C4.38575668,18.75 2.23449597,17.170463 1.50593585,14.849168 C0.777375727,12.5278729 1.64021914,10.0023312 3.636818,8.61207821 L3.636818,4.43188148 C3.63681799,3.29510472 4.24328116,2.24467967 5.2277587,1.67629129 C6.21223625,1.1079029 7.42516261,1.1079029 8.40964016,1.67629129 Z M6.02322907,3.05408637 C5.53099029,3.33828057 5.22775871,3.8634931 5.22775873,4.43188148 L5.22775873,9.50698236 L4.83002354,9.73607782 C3.27085101,10.6360265 2.51057498,12.4710457 2.97641547,14.2099877 C3.44225597,15.9489297 5.01804434,17.1581469 6.81830169,17.1581469 C8.61855905,17.1581469 10.1943474,15.9489297 10.6601879,14.2099877 C11.1260284,12.4710457 10.3657524,10.6360265 8.80657985,9.73607782 L8.40964014,9.50698236 L8.40964014,4.43188148 C8.40964016,3.8634931 8.10640857,3.33828057 7.6141698,3.05408637 C7.12193103,2.76989218 6.51546784,2.76989218 6.02322907,3.05408637 Z M7.6141698,7.61376291 L7.6141698,11.8043007 C8.23776766,12.1643351 8.54179767,12.8983285 8.35543015,13.5938616 C8.16906263,14.2893946 7.53876823,14.7730365 6.81869943,14.7730365 C6.09863064,14.7730365 5.46833624,14.2893946 5.28196872,13.5938616 C5.0956012,12.8983285 5.3996312,12.1643351 6.02322907,11.8043007 L6.02322907,7.61376291 L7.6141698,7.61376291 Z" id="形状结合" opacity="0.200000003"></path>
                        <path d="M7.15964016,0.426291288 C8.14411771,0.994679671 8.75058088,2.04510472 8.75058086,3.18188148 L8.75058086,7.36207821 C10.7471797,8.75233121 11.6100231,11.2778729 10.881463,13.599168 C10.1529029,15.920463 8.00164218,17.5 5.56869943,17.5 C3.13575668,17.5 0.984495967,15.920463 0.255935847,13.599168 C-0.472624273,11.2778729 0.390219143,8.75233121 2.386818,7.36207821 L2.386818,3.18188148 C2.38681799,2.04510472 2.99328116,0.994679671 3.9777587,0.426291288 C4.96223625,-0.142097096 6.17516261,-0.142097096 7.15964016,0.426291288 Z M4.77322907,1.80408637 C4.28099029,2.08828057 3.97775871,2.6134931 3.97775873,3.18188148 L3.97775873,8.25698236 L3.58002354,8.48607782 C2.02085101,9.38602648 1.26057498,11.2210457 1.72641547,12.9599877 C2.19225597,14.6989297 3.76804434,15.9081469 5.56830169,15.9081469 C7.36855905,15.9081469 8.94434742,14.6989297 9.41018792,12.9599877 C9.87602841,11.2210457 9.11575238,9.38602648 7.55657985,8.48607782 L7.15964014,8.25698236 L7.15964014,3.18188148 C7.15964016,2.6134931 6.85640857,2.08828057 6.3641698,1.80408637 C5.87193103,1.51989218 5.26546784,1.51989218 4.77322907,1.80408637 Z M6.3641698,6.36376291 L6.3641698,10.5543007 C6.98776766,10.9143351 7.29179767,11.6483285 7.10543015,12.3438616 C6.91906263,13.0393946 6.28876823,13.5230365 5.56869943,13.5230365 C4.84863064,13.5230365 4.21833624,13.0393946 4.03196872,12.3438616 C3.8456012,11.6483285 4.1496312,10.9143351 4.77322907,10.5543007 L4.77322907,6.36376291 L6.3641698,6.36376291 Z" id="形状结合备份"></path>
                    </g>
                </g>
            </g>
        </g>
    </g>
</svg>